<svg width="43" height="43" viewBox="0 0 43 43" fill="none" xmlns="http://www.w3.org/2000/svg">
<mask id="mask0_9_21" style="mask-type:alpha" maskUnits="userSpaceOnUse" x="0" y="0" width="43" height="43">
<rect x="0.797119" width="42.2029" height="42.2029" fill="#C7D7D9"/>
</mask>
<g mask="url(#mask0_9_21)">
<path d="M11.084 30.0696C12.5787 28.9266 14.2492 28.0254 16.0956 27.3659C17.942 26.7065 19.8763 26.3768 21.8985 26.3768C23.9207 26.3768 25.855 26.7065 27.7014 27.3659C29.5478 28.0254 31.2183 28.9266 32.713 30.0696C33.7388 28.868 34.5374 27.5052 35.1089 25.9812C35.6804 24.4572 35.9661 22.8306 35.9661 21.1014C35.9661 17.2035 34.596 13.8845 31.8558 11.1442C29.1155 8.40394 25.7964 7.03381 21.8985 7.03381C18.0006 7.03381 14.6815 8.40394 11.9413 11.1442C9.201 13.8845 7.83087 17.2035 7.83087 21.1014C7.83087 22.8306 8.11662 24.4572 8.68812 25.9812C9.25962 27.5052 10.0582 28.868 11.084 30.0696ZM21.8985 22.8599C20.1694 22.8599 18.7113 22.2664 17.5244 21.0795C16.3374 19.8925 15.7439 18.4345 15.7439 16.7053C15.7439 14.9762 16.3374 13.5181 17.5244 12.3312C18.7113 11.1442 20.1694 10.5507 21.8985 10.5507C23.6277 10.5507 25.0857 11.1442 26.2727 12.3312C27.4596 13.5181 28.0531 14.9762 28.0531 16.7053C28.0531 18.4345 27.4596 19.8925 26.2727 21.0795C25.0857 22.2664 23.6277 22.8599 21.8985 22.8599ZM21.8985 38.686C19.466 38.686 17.18 38.2244 15.0405 37.3012C12.9011 36.378 11.0401 35.1251 9.45744 33.5425C7.87483 31.9599 6.62194 30.0989 5.69875 27.9594C4.77556 25.82 4.31396 23.534 4.31396 21.1014C4.31396 18.6689 4.77556 16.3829 5.69875 14.2435C6.62194 12.104 7.87483 10.243 9.45744 8.66038C11.0401 7.07778 12.9011 5.82488 15.0405 4.90169C17.18 3.9785 19.466 3.51691 21.8985 3.51691C24.331 3.51691 26.617 3.9785 28.7565 4.90169C30.8959 5.82488 32.757 7.07778 34.3396 8.66038C35.9222 10.243 37.1751 12.104 38.0983 14.2435C39.0215 16.3829 39.483 18.6689 39.483 21.1014C39.483 23.534 39.0215 25.82 38.0983 27.9594C37.1751 30.0989 35.9222 31.9599 34.3396 33.5425C32.757 35.1251 30.8959 36.378 28.7565 37.3012C26.617 38.2244 24.331 38.686 21.8985 38.686Z" fill="#8EB0B4"/>
</g>
</svg>
