<svg width="25" height="25" viewBox="0 0 25 25" fill="none" xmlns="http://www.w3.org/2000/svg">
<mask id="mask0_180_315" style="mask-type:alpha" maskUnits="userSpaceOnUse" x="0" y="0" width="25" height="25">
<rect x="0.865723" y="0.545166" width="24" height="24" fill="#D9D9D9"/>
</mask>
<g mask="url(#mask0_180_315)">
<path d="M11.6157 19.5929C12.2611 19.5929 12.8054 19.3723 13.2487 18.9309C13.6919 18.4898 13.9135 17.9485 13.9135 17.3072V13.4554H16.9135V11.4554H12.9135V15.3962C12.7261 15.2588 12.5234 15.1581 12.3052 15.0939C12.0869 15.0296 11.8571 14.9974 11.6157 14.9974C10.9704 14.9974 10.4261 15.219 9.98273 15.6622C9.53956 16.1055 9.31798 16.6498 9.31798 17.2952C9.31798 17.9405 9.53956 18.4848 9.98273 18.9282C10.4261 19.3713 10.9704 19.5929 11.6157 19.5929ZM6.93748 22.7484C6.30781 22.7484 5.77123 22.5267 5.32773 22.0832C4.88423 21.6397 4.66248 21.1031 4.66248 20.4734V4.61692C4.66248 3.98725 4.88423 3.45067 5.32773 3.00717C5.77123 2.56367 6.30781 2.34192 6.93748 2.34192H14.9495L21.069 8.46142V20.4734C21.069 21.1031 20.8472 21.6397 20.4037 22.0832C19.9602 22.5267 19.4236 22.7484 18.794 22.7484H6.93748ZM13.794 9.61692H18.794L13.794 4.61692V9.61692Z" fill="#BF9D69"/>
</g>
</svg>
