<svg width="25" height="25" viewBox="0 0 25 25" fill="none" xmlns="http://www.w3.org/2000/svg">
<mask id="mask0_167_253" style="mask-type:alpha" maskUnits="userSpaceOnUse" x="0" y="0" width="25" height="25">
<rect x="0.333374" y="0.666687" width="24" height="24" fill="#D9D9D9"/>
</mask>
<g mask="url(#mask0_167_253)">
<path d="M11.0834 19.6667C11.7167 19.6667 12.25 19.45 12.6834 19.0167C13.1167 18.5834 13.3334 18.05 13.3334 17.4167V13.6667H16.3334V11.6667H12.3334V15.5417C12.15 15.4084 11.9542 15.3125 11.7459 15.2542C11.5375 15.1959 11.3167 15.1667 11.0834 15.1667C10.45 15.1667 9.91671 15.3834 9.48337 15.8167C9.05004 16.25 8.83337 16.7834 8.83337 17.4167C8.83337 18.05 9.05004 18.5834 9.48337 19.0167C9.91671 19.45 10.45 19.6667 11.0834 19.6667ZM6.33337 22.6667C5.78337 22.6667 5.31254 22.4709 4.92087 22.0792C4.52921 21.6875 4.33337 21.2167 4.33337 20.6667V4.66669C4.33337 4.11669 4.52921 3.64585 4.92087 3.25419C5.31254 2.86252 5.78337 2.66669 6.33337 2.66669H14.3334L20.3334 8.66669V20.6667C20.3334 21.2167 20.1375 21.6875 19.7459 22.0792C19.3542 22.4709 18.8834 22.6667 18.3334 22.6667H6.33337ZM13.3334 9.66669H18.3334L13.3334 4.66669V9.66669Z" fill="#8EB0B4"/>
</g>
</svg>
