<svg width="25" height="25" viewBox="0 0 25 25" fill="none" xmlns="http://www.w3.org/2000/svg">
<mask id="mask0_166_247" style="mask-type:alpha" maskUnits="userSpaceOnUse" x="0" y="0" width="25" height="25">
<rect x="0.333374" y="0.666687" width="24" height="24" fill="#D9D9D9"/>
</mask>
<g mask="url(#mask0_166_247)">
<path d="M11.3334 20.6667H6.83337C5.31671 20.6667 4.02087 20.1417 2.94587 19.0917C1.87087 18.0417 1.33337 16.7584 1.33337 15.2417C1.33337 13.9417 1.72504 12.7834 2.50837 11.7667C3.29171 10.75 4.31671 10.1 5.58337 9.81669C6.00004 8.28335 6.83337 7.04169 8.08337 6.09169C9.33337 5.14169 10.75 4.66669 12.3334 4.66669C14.2834 4.66669 15.9375 5.34585 17.2959 6.70419C18.6542 8.06252 19.3334 9.71669 19.3334 11.6667C20.4834 11.8 21.4375 12.2959 22.1959 13.1542C22.9542 14.0125 23.3334 15.0167 23.3334 16.1667C23.3334 17.4167 22.8959 18.4792 22.0209 19.3542C21.1459 20.2292 20.0834 20.6667 18.8334 20.6667H13.3334V13.5167L14.9334 15.0667L16.3334 13.6667L12.3334 9.66669L8.33337 13.6667L9.73337 15.0667L11.3334 13.5167V20.6667Z" fill="#8EB0B4"/>
</g>
</svg>
