<svg width="25" height="25" viewBox="0 0 25 25" fill="none" xmlns="http://www.w3.org/2000/svg">
<mask id="mask0_169_271" style="mask-type:alpha" maskUnits="userSpaceOnUse" x="0" y="0" width="25" height="25">
<rect x="0.333374" y="0.666687" width="24" height="24" fill="#D9D9D9"/>
</mask>
<g mask="url(#mask0_169_271)">
<path d="M19.3334 21.6667L12.3334 14.6667L9.98337 17.0167C10.1167 17.2667 10.2084 17.5334 10.2584 17.8167C10.3084 18.1 10.3334 18.3834 10.3334 18.6667C10.3334 19.7667 9.94171 20.7084 9.15837 21.4917C8.37504 22.275 7.43337 22.6667 6.33337 22.6667C5.23337 22.6667 4.29171 22.275 3.50837 21.4917C2.72504 20.7084 2.33337 19.7667 2.33337 18.6667C2.33337 17.5667 2.72504 16.625 3.50837 15.8417C4.29171 15.0584 5.23337 14.6667 6.33337 14.6667C6.61671 14.6667 6.90004 14.6917 7.18337 14.7417C7.46671 14.7917 7.73337 14.8834 7.98337 15.0167L10.3334 12.6667L7.98337 10.3167C7.73337 10.45 7.46671 10.5417 7.18337 10.5917C6.90004 10.6417 6.61671 10.6667 6.33337 10.6667C5.23337 10.6667 4.29171 10.275 3.50837 9.49169C2.72504 8.70835 2.33337 7.76669 2.33337 6.66669C2.33337 5.56669 2.72504 4.62502 3.50837 3.84169C4.29171 3.05835 5.23337 2.66669 6.33337 2.66669C7.43337 2.66669 8.37504 3.05835 9.15837 3.84169C9.94171 4.62502 10.3334 5.56669 10.3334 6.66669C10.3334 6.95002 10.3084 7.23335 10.2584 7.51669C10.2084 7.80002 10.1167 8.06669 9.98337 8.31669L22.3334 20.6667V21.6667H19.3334ZM15.3334 11.6667L13.3334 9.66669L19.3334 3.66669H22.3334V4.66669L15.3334 11.6667ZM6.33337 8.66669C6.88337 8.66669 7.35421 8.47085 7.74587 8.07919C8.13754 7.68752 8.33337 7.21669 8.33337 6.66669C8.33337 6.11669 8.13754 5.64585 7.74587 5.25419C7.35421 4.86252 6.88337 4.66669 6.33337 4.66669C5.78337 4.66669 5.31254 4.86252 4.92087 5.25419C4.52921 5.64585 4.33337 6.11669 4.33337 6.66669C4.33337 7.21669 4.52921 7.68752 4.92087 8.07919C5.31254 8.47085 5.78337 8.66669 6.33337 8.66669ZM12.3334 13.1667C12.4667 13.1667 12.5834 13.1167 12.6834 13.0167C12.7834 12.9167 12.8334 12.8 12.8334 12.6667C12.8334 12.5334 12.7834 12.4167 12.6834 12.3167C12.5834 12.2167 12.4667 12.1667 12.3334 12.1667C12.2 12.1667 12.0834 12.2167 11.9834 12.3167C11.8834 12.4167 11.8334 12.5334 11.8334 12.6667C11.8334 12.8 11.8834 12.9167 11.9834 13.0167C12.0834 13.1167 12.2 13.1667 12.3334 13.1667ZM6.33337 20.6667C6.88337 20.6667 7.35421 20.4709 7.74587 20.0792C8.13754 19.6875 8.33337 19.2167 8.33337 18.6667C8.33337 18.1167 8.13754 17.6459 7.74587 17.2542C7.35421 16.8625 6.88337 16.6667 6.33337 16.6667C5.78337 16.6667 5.31254 16.8625 4.92087 17.2542C4.52921 17.6459 4.33337 18.1167 4.33337 18.6667C4.33337 19.2167 4.52921 19.6875 4.92087 20.0792C5.31254 20.4709 5.78337 20.6667 6.33337 20.6667Z" fill="#8EB0B4"/>
</g>
</svg>
