<svg width="25" height="25" viewBox="0 0 25 25" fill="none" xmlns="http://www.w3.org/2000/svg">
<mask id="mask0_186_187" style="mask-type:alpha" maskUnits="userSpaceOnUse" x="0" y="0" width="25" height="25">
<rect x="0.865723" y="0.545166" width="24" height="24" fill="#D9D9D9"/>
</mask>
<g mask="url(#mask0_186_187)">
<path d="M7.79995 21.7484C7.17028 21.7484 6.6337 21.5267 6.1902 21.0832C5.7467 20.6397 5.52495 20.1031 5.52495 19.4734V6.61093H4.38745V4.33593H9.7282V3.19843H15.9912V4.33593H21.344V6.61093H20.2065V19.4734C20.2065 20.1031 19.9847 20.6397 19.5412 21.0832C19.0977 21.5267 18.5611 21.7484 17.9315 21.7484H7.79995ZM9.7582 17.5392H11.8957V8.53918H9.7582V17.5392ZM13.8357 17.5392H15.9732V8.53918H13.8357V17.5392Z" fill="#807566"/>
</g>
</svg>
