<svg width="25" height="25" viewBox="0 0 25 25" fill="none" xmlns="http://www.w3.org/2000/svg">
<mask id="mask0_168_265" style="mask-type:alpha" maskUnits="userSpaceOnUse" x="0" y="0" width="25" height="25">
<rect x="0.333374" y="0.666687" width="24" height="24" fill="#D9D9D9"/>
</mask>
<g mask="url(#mask0_168_265)">
<path d="M12.3334 19.6667C10.3834 19.6667 8.72921 18.9875 7.37087 17.6292C6.01254 16.2709 5.33337 14.6167 5.33337 12.6667C5.33337 10.7167 6.01254 9.06252 7.37087 7.70419C8.72921 6.34585 10.3834 5.66669 12.3334 5.66669C14.2834 5.66669 15.9375 6.34585 17.2959 7.70419C18.6542 9.06252 19.3334 10.7167 19.3334 12.6667C19.3334 14.6167 18.6542 16.2709 17.2959 17.6292C15.9375 18.9875 14.2834 19.6667 12.3334 19.6667Z" fill="#8EB0B4"/>
</g>
</svg>
