<svg width="36" height="36" viewBox="0 0 36 36" fill="none" xmlns="http://www.w3.org/2000/svg">
<mask id="mask0_27_713" style="mask-type:alpha" maskUnits="userSpaceOnUse" x="0" y="0" width="36" height="36">
<rect y="0.5" width="35.2029" height="35.2029" fill="#C7D7D9"/>
</mask>
<g mask="url(#mask0_27_713)">
<path d="M17.5281 26.9022C18.0415 26.9022 18.4754 26.7249 18.8299 26.3705C19.1844 26.016 19.3616 25.5821 19.3616 25.0687C19.3616 24.5553 19.1844 24.1214 18.8299 23.7669C18.4754 23.4124 18.0415 23.2352 17.5281 23.2352C17.0148 23.2352 16.5808 23.4124 16.2264 23.7669C15.8719 24.1214 15.6946 24.5553 15.6946 25.0687C15.6946 25.5821 15.8719 26.016 16.2264 26.3705C16.5808 26.7249 17.0148 26.9022 17.5281 26.9022ZM16.208 21.255H18.9216C18.9216 20.4483 19.0133 19.8127 19.1966 19.3482C19.3799 18.8837 19.8994 18.2481 20.7551 17.4414C21.3907 16.8058 21.8918 16.2007 22.2585 15.6262C22.6252 15.0518 22.8086 14.3611 22.8086 13.5544C22.8086 12.1854 22.3074 11.1342 21.3051 10.4008C20.3028 9.66742 19.1171 9.30072 17.7481 9.30072C16.3547 9.30072 15.2241 9.66742 14.3562 10.4008C13.4884 11.1342 12.8833 12.0143 12.5411 13.041L14.9613 13.9944C15.0835 13.5544 15.3585 13.0777 15.7863 12.5643C16.2141 12.051 16.8681 11.7943 17.7481 11.7943C18.5304 11.7943 19.1171 12.0082 19.5083 12.436C19.8994 12.8638 20.095 13.3344 20.095 13.8478C20.095 14.3367 19.9483 14.7951 19.655 15.2229C19.3616 15.6507 18.9949 16.0479 18.5549 16.4146C17.4792 17.3681 16.8192 18.0892 16.5747 18.5782C16.3303 19.0671 16.208 19.9594 16.208 21.255ZM17.6015 32.7693C15.5724 32.7693 13.6656 32.3843 11.881 31.6142C10.0964 30.8442 8.54406 29.7991 7.22395 28.479C5.90384 27.1589 4.85875 25.6065 4.08869 23.8219C3.31863 22.0373 2.93359 20.1305 2.93359 18.1014C2.93359 16.0724 3.31863 14.1656 4.08869 12.381C4.85875 10.5964 5.90384 9.04404 7.22395 7.72393C8.54406 6.40382 10.0964 5.35873 11.881 4.58867C13.6656 3.81861 15.5724 3.43357 17.6015 3.43357C19.6305 3.43357 21.5373 3.81861 23.3219 4.58867C25.1065 5.35873 26.6589 6.40382 27.979 7.72393C29.2991 9.04404 30.3442 10.5964 31.1142 12.381C31.8843 14.1656 32.2693 16.0724 32.2693 18.1014C32.2693 20.1305 31.8843 22.0373 31.1142 23.8219C30.3442 25.6065 29.2991 27.1589 27.979 28.479C26.6589 29.7991 25.1065 30.8442 23.3219 31.6142C21.5373 32.3843 19.6305 32.7693 17.6015 32.7693Z" fill="#8EB0B4"/>
</g>
</svg>
