<svg width="54" height="60" viewBox="0 0 54 60" fill="none" xmlns="http://www.w3.org/2000/svg">
<path d="M26.6667 60C23 60 19.8611 58.6944 17.25 56.0833C14.6389 53.4722 13.3333 50.3333 13.3333 46.6667C13.3333 43 14.6389 39.8611 17.25 37.25C19.8611 34.6389 23 33.3333 26.6667 33.3333C27.9444 33.3333 29.125 33.4861 30.2083 33.7917C31.2917 34.0972 32.3333 34.5556 33.3333 35.1667V0H53.3333V13.3333H40V46.6667C40 50.3333 38.6944 53.4722 36.0833 56.0833C33.4722 58.6944 30.3333 60 26.6667 60ZM10 26.6667V16.6667H0V10H10V0H16.6667V10H26.6667V16.6667H16.6667V26.6667H10Z" fill="#8EB0B4"/>
</svg>
