<svg width="25" height="25" viewBox="0 0 25 25" fill="none" xmlns="http://www.w3.org/2000/svg">
<mask id="mask0_175_308" style="mask-type:alpha" maskUnits="userSpaceOnUse" x="0" y="0" width="25" height="25">
<rect x="0.333374" y="0.666687" width="24" height="24" fill="#D9D9D9"/>
</mask>
<g mask="url(#mask0_175_308)">
<path d="M12.3334 22.8699C10.9349 22.8699 9.61538 22.6023 8.37488 22.0669C7.13438 21.5318 6.05113 20.8011 5.12513 19.8749C4.19896 18.9489 3.46829 17.8657 2.93313 16.6252C2.39779 15.3847 2.13013 14.0652 2.13013 12.6667C2.13013 11.2549 2.39771 9.93236 2.93288 8.69919C3.46821 7.46602 4.19888 6.38594 5.12488 5.45894C6.05088 4.53194 7.13413 3.80094 8.37463 3.26594C9.61529 2.73094 10.9349 2.46344 12.3334 2.46344C12.6525 2.46344 12.922 2.57319 13.1416 2.79269C13.3611 3.01236 13.4709 3.28177 13.4709 3.60094C13.4709 3.92011 13.3611 4.18952 13.1416 4.40919C12.922 4.62869 12.6525 4.73844 12.3334 4.73844C10.1365 4.73844 8.26596 5.51061 6.72163 7.05494C5.17729 8.59927 4.40513 10.4699 4.40513 12.6667C4.40513 14.8634 5.17729 16.7339 6.72163 18.2784C8.26596 19.8228 10.1365 20.5949 12.3334 20.5949C14.53 20.5949 16.4006 19.8228 17.9451 18.2784C19.4895 16.7341 20.2616 14.8635 20.2616 12.6667C20.2616 12.3475 20.3714 12.0781 20.5909 11.8584C20.8105 11.6389 21.08 11.5292 21.3991 11.5292C21.7183 11.5292 21.9877 11.6389 22.2074 11.8584C22.4269 12.0781 22.5366 12.3475 22.5366 12.6667C22.5366 14.0652 22.269 15.3848 21.7339 16.6254C21.1985 17.8661 20.4679 18.9495 19.5419 19.8757C18.6159 20.8019 17.536 21.5324 16.3024 22.0674C15.0687 22.6024 13.7457 22.8699 12.3334 22.8699Z" fill="#8EB0B4"/>
</g>
</svg>
