<svg width="25" height="25" viewBox="0 0 25 25" fill="none" xmlns="http://www.w3.org/2000/svg">
<mask id="mask0_166_235" style="mask-type:alpha" maskUnits="userSpaceOnUse" x="0" y="0" width="25" height="25">
<rect x="0.333374" y="0.666687" width="24" height="24" fill="#D9D9D9"/>
</mask>
<g mask="url(#mask0_166_235)">
<path d="M12.3334 17.6667C13.7167 17.6667 14.8959 17.1792 15.8709 16.2042C16.8459 15.2292 17.3334 14.05 17.3334 12.6667C17.3334 11.2834 16.8459 10.1042 15.8709 9.12919C14.8959 8.15419 13.7167 7.66669 12.3334 7.66669C10.95 7.66669 9.77087 8.15419 8.79587 9.12919C7.82087 10.1042 7.33337 11.2834 7.33337 12.6667C7.33337 14.05 7.82087 15.2292 8.79587 16.2042C9.77087 17.1792 10.95 17.6667 12.3334 17.6667ZM12.3334 22.6667C10.95 22.6667 9.65004 22.4042 8.43337 21.8792C7.21671 21.3542 6.15837 20.6417 5.25837 19.7417C4.35837 18.8417 3.64587 17.7834 3.12087 16.5667C2.59587 15.35 2.33337 14.05 2.33337 12.6667C2.33337 11.2834 2.59587 9.98335 3.12087 8.76669C3.64587 7.55002 4.35837 6.49169 5.25837 5.59169C6.15837 4.69169 7.21671 3.97919 8.43337 3.45419C9.65004 2.92919 10.95 2.66669 12.3334 2.66669C13.7167 2.66669 15.0167 2.92919 16.2334 3.45419C17.45 3.97919 18.5084 4.69169 19.4084 5.59169C20.3084 6.49169 21.0209 7.55002 21.5459 8.76669C22.0709 9.98335 22.3334 11.2834 22.3334 12.6667C22.3334 14.05 22.0709 15.35 21.5459 16.5667C21.0209 17.7834 20.3084 18.8417 19.4084 19.7417C18.5084 20.6417 17.45 21.3542 16.2334 21.8792C15.0167 22.4042 13.7167 22.6667 12.3334 22.6667ZM12.3334 20.6667C14.5667 20.6667 16.4584 19.8917 18.0084 18.3417C19.5584 16.7917 20.3334 14.9 20.3334 12.6667C20.3334 10.4334 19.5584 8.54169 18.0084 6.99169C16.4584 5.44169 14.5667 4.66669 12.3334 4.66669C10.1 4.66669 8.20837 5.44169 6.65837 6.99169C5.10837 8.54169 4.33337 10.4334 4.33337 12.6667C4.33337 14.9 5.10837 16.7917 6.65837 18.3417C8.20837 19.8917 10.1 20.6667 12.3334 20.6667Z" fill="#8EB0B4"/>
</g>
</svg>
