<svg width="25" height="25" viewBox="0 0 25 25" fill="none" xmlns="http://www.w3.org/2000/svg">
<mask id="mask0_170_295" style="mask-type:alpha" maskUnits="userSpaceOnUse" x="0" y="0" width="25" height="25">
<rect x="0.333374" y="0.666687" width="24" height="24" fill="#D9D9D9"/>
</mask>
<g mask="url(#mask0_170_295)">
<path d="M12.3346 22.906C11.056 22.906 9.85781 22.6635 8.74015 22.1785C7.62265 21.6935 6.64973 21.0368 5.8214 20.2085C4.99323 19.3803 4.33665 18.4074 3.85165 17.2897C3.36665 16.1722 3.12415 14.9765 3.12415 13.7025H5.39915C5.39915 15.6326 6.0719 17.2699 7.4174 18.6142C8.76306 19.9587 10.4017 20.631 12.3334 20.631C14.2634 20.631 15.9006 19.9581 17.2451 18.6125C18.5895 17.267 19.2616 15.6284 19.2616 13.6967C19.2616 11.7665 18.5889 10.1293 17.2434 8.78496C15.8977 7.44063 14.2591 6.76847 12.3274 6.76847H12.1714L13.6736 8.27047L12.2079 9.78622L8.0524 5.63097L12.2079 1.47546L13.6736 2.99721L12.1774 4.49346H12.3274C13.6064 4.49346 14.8044 4.73588 15.9214 5.22071C17.0384 5.70571 18.0121 6.36238 18.8424 7.19072C19.6726 8.01888 20.3301 8.99088 20.8151 10.1067C21.3001 11.2225 21.5426 12.4193 21.5426 13.697C21.5426 14.9746 21.3001 16.1722 20.8151 17.2897C20.3301 18.4074 19.6736 19.3803 18.8454 20.2085C18.0171 21.0368 17.0446 21.6935 15.9279 22.1785C14.8111 22.6635 13.6133 22.906 12.3346 22.906Z" fill="#C7D7D9"/>
</g>
</svg>
