<svg width="41" height="41" viewBox="0 0 41 41" fill="none" xmlns="http://www.w3.org/2000/svg">
<mask id="mask0_9_27" style="mask-type:alpha" maskUnits="userSpaceOnUse" x="0" y="0" width="41" height="41">
<rect width="40.5797" height="40.5797" fill="#C7D7D9"/>
</mask>
<g mask="url(#mask0_9_27)">
<path d="M23.6715 35.0423V31.5761C26.2078 30.8434 28.2509 29.4344 29.8008 27.349C31.3507 25.2637 32.1256 22.8965 32.1256 20.2476C32.1256 17.5986 31.3507 15.2315 29.8008 13.1461C28.2509 11.0608 26.2078 9.65177 23.6715 8.91908V5.4529C27.1659 6.24195 30.0121 8.01026 32.2102 10.7578C34.4083 13.5054 35.5073 16.6687 35.5073 20.2476C35.5073 23.8265 34.4083 26.9897 32.2102 29.7373C30.0121 32.4849 27.1659 34.2532 23.6715 35.0423ZM5.07251 25.3623V15.2174H11.8358L20.2899 6.76328V33.8164L11.8358 25.3623H5.07251ZM23.6715 27.0531V13.442C24.996 14.062 26.0316 14.9919 26.7784 16.2319C27.5252 17.4718 27.8986 18.8245 27.8986 20.2899C27.8986 21.7271 27.5252 23.0586 26.7784 24.2844C26.0316 25.5103 24.996 26.4332 23.6715 27.0531Z" fill="#8EB0B4"/>
</g>
</svg>
